<svg width="40" height="48" viewBox="0 0 40 48" fill="none" xmlns="http://www.w3.org/2000/svg">
<g clip-path="url(#clip0_2891_22123)">
<path d="M1.8282 26.7409C1.77947 26.7713 1.7612 26.8018 1.79166 26.8018C1.82211 26.8018 1.80993 26.8444 1.76729 26.8932C1.73074 26.9419 1.71247 27.0089 1.73683 27.0515C1.7612 27.0881 1.74902 27.1429 1.70638 27.1673C1.65765 27.1977 1.62719 27.3013 1.62719 27.4048C1.62719 27.5084 1.60891 27.5937 1.58455 27.5937C1.548 27.5937 1.53582 27.6424 1.51145 27.8982C1.50536 27.9653 1.4749 28.0201 1.44445 28.0201C1.42008 28.0201 1.41399 28.0444 1.43227 28.081C1.45054 28.1114 1.42617 28.215 1.37744 28.3125C1.32871 28.4099 1.29826 28.5074 1.31653 28.5257C1.3348 28.5439 1.31044 28.6353 1.26171 28.7328C1.21298 28.8241 1.18861 28.9399 1.20079 28.9764C1.21907 29.0191 1.20079 29.0556 1.15815 29.0556C1.12161 29.0556 1.10333 29.08 1.1277 29.1104C1.14597 29.1409 1.1277 29.1896 1.09115 29.2079C1.06069 29.2323 1.04242 29.2932 1.06678 29.348C1.08506 29.3967 1.07287 29.4576 1.03633 29.482C0.999778 29.5064 0.96323 29.6038 0.957138 29.7013C0.951047 29.7988 0.926682 29.8901 0.902316 29.9084C0.810945 29.9815 0.268813 32.4485 0.329727 32.5094C0.348001 32.5338 0.34191 32.5764 0.311453 32.613C0.280996 32.6495 0.2079 33.0515 0.146986 33.5023C0.0556155 34.1419 0.03125 34.7023 0.03125 36.0302C0.0373414 37.5348 0.0495241 37.8272 0.171352 38.5155C0.494194 40.3185 1.06678 41.8231 1.91348 43.0779C2.38861 43.7906 2.4678 43.8881 3.13785 44.5581C3.80181 45.2221 3.89927 45.3074 4.61196 45.7886C5.95815 46.6901 7.62719 47.348 9.47287 47.6952C11.7206 48.1094 14.7602 48.1094 17.2698 47.6952C20.3277 47.1835 23.6231 46.0262 26.346 44.5033C26.547 44.3937 26.8516 44.2231 27.016 44.1317C27.4241 43.9064 28.5754 43.1571 29.483 42.5358C29.9277 42.2312 30.884 41.4759 31.5236 40.9338C32.2607 40.3064 33.9724 38.6495 33.6008 38.9297C33.5155 38.9906 33.4911 38.9906 33.5277 38.9358C33.5521 38.8932 33.6434 38.8323 33.7226 38.8018C33.8079 38.7653 33.8871 38.6922 33.9115 38.6373C33.9297 38.5764 34.0028 38.479 34.0759 38.4241C34.149 38.3693 34.2038 38.2901 34.2038 38.2597C34.2038 38.2231 34.2221 38.1988 34.2404 38.2048C34.2952 38.2292 34.478 38.0647 34.4475 38.0099C34.4353 37.9856 34.5023 37.9064 34.5998 37.8333C34.7033 37.7602 34.7825 37.6627 34.7825 37.6201C34.7825 37.5713 34.8495 37.4922 34.9348 37.4373C35.0201 37.3825 35.0871 37.2972 35.0871 37.2485C35.0871 37.1998 35.1175 37.1571 35.1541 37.1571C35.1846 37.1571 35.1967 37.1267 35.1724 37.084C35.148 37.0475 35.1541 37.0353 35.1906 37.0536C35.2516 37.0901 35.5135 36.7856 35.5135 36.6698C35.5135 36.6394 35.55 36.6089 35.5927 36.6089C35.6414 36.6028 35.6353 36.5845 35.5744 36.5541C35.5257 36.5297 32.7845 35.7135 29.4891 34.751C25.4384 33.5632 23.483 33.015 23.4648 33.0637C23.4526 33.1064 23.4221 33.1246 23.4038 33.1125C23.3795 33.1003 23.3064 33.1612 23.2455 33.2465C23.1724 33.3378 23.1602 33.3805 23.215 33.35C23.2637 33.3196 23.2211 33.3744 23.1297 33.4597C23.0384 33.551 22.9714 33.6485 22.9896 33.6729C23.0079 33.7033 22.9653 33.7642 22.8983 33.8069C22.8373 33.8556 22.7825 33.9226 22.7825 33.9531C22.7825 33.9835 22.7338 34.0444 22.679 34.0932C22.6059 34.1541 22.5998 34.1663 22.6607 34.1419C22.7094 34.1236 22.6911 34.1541 22.6181 34.2089C22.5389 34.2637 22.478 34.349 22.478 34.3977C22.478 34.4465 22.4109 34.5439 22.3196 34.6109C22.2343 34.6779 22.1795 34.7449 22.1977 34.7632C22.2099 34.7815 22.1734 34.8424 22.1064 34.9094C22.0394 34.9764 22.0028 35.0556 22.0211 35.0861C22.0455 35.1226 22.0272 35.147 21.9967 35.147C21.9602 35.147 21.9297 35.1896 21.9297 35.2444C21.9297 35.2932 21.9054 35.3236 21.881 35.3054C21.8262 35.2749 21.1622 36.2434 21.1866 36.3226C21.1927 36.3531 21.1805 36.3592 21.15 36.3409C21.1196 36.3226 21.0465 36.3957 20.9856 36.5054C20.9247 36.615 20.8089 36.7795 20.7297 36.8708C20.6505 36.9683 20.6079 37.0779 20.6262 37.1084C20.6505 37.1449 20.6444 37.1571 20.614 37.1389C20.547 37.1023 20.1815 37.6444 20.212 37.7358C20.2241 37.7663 20.212 37.7784 20.1876 37.7541C20.1632 37.7297 20.0597 37.8394 19.95 37.9977C19.7734 38.2597 19.6455 38.4424 18.9328 39.4718C18.8049 39.6546 18.5917 39.9592 18.4637 40.1419C18.2444 40.4647 17.9094 40.946 17.4099 41.6647C17.282 41.8475 17.0688 42.1521 16.9409 42.3348C16.7216 42.6576 16.3866 43.1389 15.8871 43.8576C15.7592 44.0404 15.546 44.3449 15.4181 44.5277C15.1988 44.8505 14.8637 45.3317 14.3642 46.0505C13.9013 46.7145 13.6576 47.0617 13.4079 47.4394C13.2617 47.6465 13.1399 47.817 13.1277 47.817C13.1216 47.817 14.3033 44.8505 15.7592 41.2201C17.215 37.5957 18.4089 34.5683 18.4089 34.4952C18.4089 34.416 18.4333 34.3734 18.4637 34.3916C18.5186 34.4221 18.5429 34.2881 18.5247 34.1175C18.5125 34.0749 18.5368 34.0566 18.5734 34.081C18.6343 34.1175 18.6708 33.9957 18.6465 33.813C18.6343 33.7703 18.6587 33.7521 18.6952 33.7764C18.7561 33.813 18.7927 33.6911 18.7683 33.5084C18.7561 33.4658 18.7805 33.4475 18.817 33.4718C18.878 33.5084 18.9145 33.3866 18.8901 33.2038C18.878 33.1612 18.9023 33.1429 18.9389 33.1673C18.9998 33.2038 19.0363 33.082 19.012 32.8993C18.9998 32.8566 19.0241 32.8383 19.0546 32.8566C19.1216 32.8993 19.1825 32.7226 19.146 32.6008C19.1216 32.546 18.4333 32.5277 15.9724 32.5277C14.2424 32.5277 12.8536 32.5033 12.884 32.479C12.951 32.4302 12.9937 32.3145 12.9998 32.1439C12.9998 32.0891 13.0181 32.0404 13.0363 32.0404C13.0729 32.0404 13.0851 31.9916 13.1094 31.7358C13.1155 31.6688 13.1521 31.614 13.1825 31.614C13.213 31.614 13.2252 31.5957 13.2069 31.5774C13.1825 31.5592 13.2069 31.4556 13.2495 31.3399C13.2983 31.2302 13.3226 31.1267 13.3043 31.1084C13.2861 31.0901 13.3104 30.9988 13.3653 30.8952C13.414 30.7977 13.4444 30.7003 13.4262 30.682C13.4079 30.6637 13.4323 30.5724 13.481 30.4749C13.5297 30.3835 13.5541 30.2678 13.5419 30.2251C13.5236 30.1886 13.548 30.1521 13.5967 30.146C13.6394 30.146 13.615 30.1216 13.5419 30.0911C13.414 30.0363 1.98658 26.68 1.94394 26.68C1.93176 26.68 1.87694 26.7104 1.8282 26.7409Z" fill="white"/>
<path d="M7.684 6.38461C6.67283 9.89324 5.43019 14.1877 4.9307 15.9298C4.42512 17.6719 3.99263 19.1948 3.95608 19.3105C3.92562 19.4262 3.80989 19.81 3.70633 20.1633C3.60278 20.5166 3.49314 20.8943 3.46268 20.9978C3.43222 21.1075 3.38349 21.2902 3.35303 21.3937C3.32258 21.5034 3.25557 21.747 3.20075 21.9298C3.15202 22.1125 3.05456 22.4536 2.98146 22.6912C2.91446 22.9227 2.84745 23.1724 2.83527 23.2394C2.82918 23.3064 2.78654 23.4222 2.74999 23.4953C2.70735 23.5684 2.68298 23.6536 2.68907 23.678C2.70126 23.7024 2.67689 23.8059 2.63425 23.9095C2.54288 24.1531 2.23222 25.2922 2.23222 25.3836C2.23222 25.4262 2.20786 25.4628 2.1774 25.4628C2.14694 25.4628 2.14085 25.4871 2.15913 25.5237C2.1774 25.5542 2.15303 25.6638 2.09821 25.7734C2.04339 25.877 2.01293 25.9745 2.03121 25.9927C2.04948 26.011 2.02512 26.0963 1.98248 26.1877C1.87892 26.4009 1.80583 26.7602 1.88501 26.7115C1.91547 26.6932 4.56522 27.4425 7.76928 28.3866C10.9733 29.3247 13.6048 30.0861 13.6109 30.08C13.6231 30.0557 13.8241 29.3369 13.8546 29.1907C13.8667 29.1359 13.9642 28.813 14.0678 28.478C14.1713 28.143 14.2627 27.8141 14.2749 27.747C14.281 27.68 14.3236 27.5643 14.3601 27.4973C14.3967 27.4242 14.415 27.3511 14.3967 27.3328C14.3784 27.3146 14.4089 27.2171 14.4637 27.1075C14.5185 26.9978 14.549 26.9003 14.5307 26.8821C14.5124 26.8638 14.5307 26.7907 14.5672 26.7176C14.6038 26.6506 14.6403 26.5349 14.6525 26.4679C14.6586 26.4009 14.7013 26.2608 14.7317 26.1633C14.7865 26.0171 15.353 24.0922 15.5906 23.2394C15.6211 23.1359 15.7063 22.8496 15.7733 22.5998C15.8464 22.3501 15.9256 22.0577 15.9561 21.9602C15.9804 21.8567 16.1997 21.1075 16.4434 20.2851C16.681 19.4628 17.5216 16.5694 18.3013 13.8587C19.087 11.142 20.3053 6.93892 21.0119 4.51456C21.7124 2.0841 22.2911 0.0739498 22.2911 0.0495853C22.2911 0.025219 19.4221 0.000854492 15.9134 0.000854492H9.52968L7.684 6.38461Z" fill="white"/>
<path d="M25.1078 17.7752C23.786 21.0828 22.6895 23.8422 22.6591 23.9092C22.6347 23.9762 22.5799 24.1102 22.5372 24.2138C22.452 24.4148 22.3667 24.628 22.2875 24.8351C22.257 24.9143 22.2083 25.0361 22.1778 25.1092C22.0926 25.3407 21.9768 25.6087 21.922 25.7184C21.8916 25.7793 21.8672 25.8524 21.8672 25.8889C21.8672 25.9316 22.9575 25.9498 25.0956 25.9498H28.324L27.9403 26.5102C27.7332 26.8148 27.4469 27.229 27.3068 27.4361C27.1667 27.6432 26.9474 27.96 26.8256 28.1427C26.7037 28.3255 26.588 28.4899 26.5636 28.5082C26.5454 28.5265 26.4174 28.7031 26.2834 28.8981C26.1494 29.0991 25.9179 29.4402 25.7657 29.6534C25.6134 29.8727 25.4063 30.1833 25.2966 30.3539C25.1931 30.5184 25.0773 30.6767 25.053 30.695C25.0225 30.7133 24.8885 30.9021 24.7606 31.1092C24.6327 31.3224 24.5108 31.493 24.4865 31.493C24.4621 31.493 24.4134 31.5539 24.3829 31.627C24.3464 31.7062 24.2245 31.8889 24.1149 32.0412C23.9992 32.1935 23.9078 32.3336 23.9078 32.3519C23.9078 32.4006 23.7007 32.6869 23.5301 32.8818C23.4509 32.9671 23.39 33.0646 23.39 33.1011C23.39 33.1377 23.4144 33.1316 23.4449 33.0828C23.4875 33.0158 24.6083 33.3204 29.5545 34.7701C32.8865 35.7509 35.6337 36.5488 35.658 36.5488C35.6824 36.5488 35.6824 36.5245 35.6641 36.4879C35.6459 36.4575 35.6459 36.427 35.6763 36.427C35.7007 36.427 35.8225 36.2808 35.9383 36.1042C36.054 35.9336 36.1819 35.7569 36.2185 35.7265C36.322 35.629 36.6814 35.0869 36.6388 35.0869C36.6144 35.0869 36.6875 34.9773 36.791 34.8432C36.8946 34.7092 36.9616 34.5996 36.9372 34.5996C36.9129 34.5996 36.9433 34.5448 36.9982 34.4839C37.12 34.3498 37.1443 34.3011 37.7718 33.0889C39.0936 30.5245 39.788 27.8747 39.8794 25.0971C39.9586 22.7336 39.5322 20.6382 38.5941 18.7316C37.9423 17.4158 37.3027 16.5387 36.2306 15.5031C34.586 13.9072 32.6063 12.8473 30.121 12.226C29.4327 12.0554 27.788 11.7509 27.5504 11.7569C27.5261 11.7569 26.4235 14.4676 25.1078 17.7752Z" fill="white"/>
</g>
<defs>
<clipPath id="clip0_2891_22123">
<rect width="39.8985" height="48" fill="white"/>
</clipPath>
</defs>
</svg>
