<svg width="20" height="20" viewBox="0 0 20 20" fill="none" xmlns="http://www.w3.org/2000/svg"><path d="M13 13H15.8C16.9201 13 17.48 13 17.9078 12.782C18.2841 12.5902 18.5905 12.2844 18.7822 11.908C19.0002 11.4802 19.0002 10.9202 19.0002 9.80005V4.20002C19.0002 3.07992 19.0002 2.51986 18.7822 2.09204C18.5905 1.71572 18.2841 1.40973 17.9078 1.21799C17.48 1 16.9203 1 15.8002 1H10.2002C9.08009 1 8.51962 1 8.0918 1.21799C7.71547 1.40973 7.40973 1.71572 7.21799 2.09204C7 2.51986 7 3.07997 7 4.20007V7.00007M1 15.8001V10.2001C1 9.07997 1 8.51986 1.21799 8.09204C1.40973 7.71572 1.71547 7.40973 2.0918 7.21799C2.51962 7 3.08009 7 4.2002 7H9.8002C10.9203 7 11.48 7 11.9078 7.21799C12.2841 7.40973 12.5905 7.71572 12.7822 8.09204C13.0002 8.51986 13.0002 9.07992 13.0002 10.2V15.8C13.0002 16.9202 13.0002 17.4802 12.7822 17.908C12.5905 18.2844 12.2841 18.5902 11.9078 18.782C11.48 19 10.9203 19 9.8002 19H4.2002C3.08009 19 2.51962 19 2.0918 18.782C1.71547 18.5902 1.40973 18.2844 1.21799 17.908C1 17.4802 1 16.9202 1 15.8001Z" stroke="#838F9B" stroke-width="2" stroke-linecap="round" stroke-linejoin="round"></path></svg>