<svg width="48" height="35" viewBox="0 0 48 35" fill="none" xmlns="http://www.w3.org/2000/svg">
<path d="M16.343 0.768948C11.5467 0.917835 7.55866 1.20498 5.8571 1.55592C4.33632 1.85369 3.61316 2.24718 2.57095 3.28939C1.59256 4.26779 1.25224 4.87397 0.9332 6.18204C-0.311067 11.2123 -0.311067 23.8038 0.9332 28.8341C1.25224 30.1422 1.59256 30.7483 2.57095 31.7267C3.95347 33.1199 5.03822 33.5027 8.55832 33.8218C12.3762 34.1834 15.0987 34.2578 24 34.2578C32.9013 34.2578 35.6238 34.1834 39.4417 33.8218C42.9618 33.5027 44.0465 33.1199 45.429 31.7267C46.4074 30.7483 46.7478 30.1422 47.0668 28.8341C48.3111 23.8038 48.3111 11.2123 47.0668 6.18204C46.7478 4.87397 46.4074 4.26779 45.429 3.28939C44.3868 2.24718 43.6637 1.85369 42.1323 1.55592C40.9731 1.32196 38.6122 1.08799 35.6451 0.917835C33.7733 0.800854 18.8634 0.694508 16.343 0.768948ZM25.9462 14.1581C29.0834 15.966 31.657 17.4762 31.657 17.5081C31.657 17.6038 19.2675 24.7184 19.1931 24.6653C19.0974 24.6121 19.0761 10.4466 19.1718 10.3509C19.2144 10.319 19.4696 10.4147 19.7355 10.5742C20.012 10.7337 22.8089 12.3396 25.9462 14.1581Z" fill="white"/>
<path d="M19.3125 17.5056V24.5352L19.9293 24.1842C22.9815 22.4507 31.4361 17.5481 31.4361 17.5056C31.4361 17.463 22.9815 12.5604 19.9293 10.8269L19.3125 10.476V17.5056Z" fill="#EC1D1D"/>
</svg>
