<svg width="24" height="18" viewBox="0 0 24 18" fill="none" xmlns="http://www.w3.org/2000/svg">
<path d="M8.17149 0.632521C5.77335 0.706964 3.77933 0.850534 2.92855 1.02601C2.16816 1.17489 1.80658 1.37164 1.28548 1.89274C0.796278 2.38194 0.626122 2.68503 0.4666 3.33907C-0.155533 5.85419 -0.155533 12.15 0.4666 14.6651C0.626122 15.3191 0.796278 15.6222 1.28548 16.1114C1.97674 16.808 2.51911 16.9994 4.27916 17.1589C6.1881 17.3397 7.54935 17.377 12 17.377C16.4506 17.377 17.8119 17.3397 19.7208 17.1589C21.4809 16.9994 22.0233 16.808 22.7145 16.1114C23.2037 15.6222 23.3739 15.3191 23.5334 14.6651C24.1555 12.15 24.1555 5.85419 23.5334 3.33907C23.3739 2.68503 23.2037 2.38194 22.7145 1.89274C22.1934 1.37164 21.8318 1.17489 21.0661 1.02601C20.4865 0.909025 19.3061 0.792044 17.8225 0.706964C16.8867 0.648474 9.4317 0.595301 8.17149 0.632521ZM12.9731 7.3271C14.5417 8.23106 15.8285 8.98613 15.8285 9.00208C15.8285 9.04994 9.63377 12.6073 9.59654 12.5807C9.54869 12.5541 9.53805 5.47134 9.58591 5.42348C9.60718 5.40753 9.7348 5.45539 9.86773 5.53515C10.006 5.61491 11.4045 6.41783 12.9731 7.3271Z" fill="#EC1D1D"/>
<path d="M9.65625 9.00279V12.5176L9.96466 12.3421C11.4907 11.4754 15.7181 9.02406 15.7181 9.00279C15.7181 8.98152 11.4907 6.53021 9.96466 5.66347L9.65625 5.488V9.00279Z" fill="white"/>
</svg>
